<svg height="512pt" viewBox="0 0 512.00062 512" width="512pt" xmlns="http://www.w3.org/2000/svg"><path d="m254.65625 472.726562c29.234375-35.449218 40.621094-98.167968 39.367188-161.457031-39.890626-12.820312-62.164063-58.332031-71.25-113.851562-25.789063.8125-53.59375 4.871093-78.734376 11.070312-23.457031 11.378907-44.40625 24.734375-58.394531 38.71875 3.0625 11.417969 6.824219 23.214844 11.214844 35.15625 31.0625 84.527344 93.363281 176.222657 157.796875 190.363281zm0 0" fill="#f44f5c" fill-rule="evenodd"/><path d="m502 87.339844c-19.613281-19.613282-52.910156-37.992188-87.632812-51.410156-34.386719-4.703126-69.117188-4.886719-94.085938 1.804687-2.875 10.734375-5.382812 22.074219-7.476562 33.8125-8.46875 47.496094-10.199219 101.519531-2.523438 148.402344h.011719c5.886719 35.960937 17.3125 67.707031 35.46875 89.105469 68.824219-25.851563 132.960937-134.847657 156.238281-221.714844zm0 0" fill="#ff974a" fill-rule="evenodd"/><path d="m509.070312 80.269531c-31.929687-31.933593-90.808593-56.003906-131.523437-66.914062-31.679687-8.484375-67.308594-13.355469-97.757813-13.355469-19.195312 0-35.882812 1.863281-49.605468 5.539062-3.449219.925782-6.144532 3.621094-7.070313 7.070313-2.9375 10.960937-5.457031 22.40625-7.554687 34.144531-.078125.34375-.136719.695313-.183594 1.046875-8.144531 46.183594-9.726562 96.785157-4.085938 140.164063-25.230468 1.621094-52.105468 6.027344-76.835937 12.652344-40.710937 10.910156-99.589844 34.976562-131.523437 66.914062-2.527344 2.523438-3.515626 6.207031-2.589844 9.65625 3.191406 11.914062 7.089844 24.066406 11.570312 36.242188.003906.015624.011719.03125.015625.046874 15.445313 41.941407 37.925781 84.195313 63.222657 118.03125 27.449218 36.71875 70.675781 80.492188 120.714843 80.492188 7.191407 0 14.351563-.941406 21.277344-2.800781 30.539063-8.183594 54.523437-33.683594 69.363281-73.746094 11.292969-30.492187 17.308594-68.875 17.582032-111.613281 3.984374.589844 8.011718.898437 12.050781.898437 50.035156 0 93.261719-43.773437 120.714843-80.492187 32.65625-43.679688 60.621094-101.367188 74.808594-154.316406.921875-3.453126-.0625-7.136719-2.589844-9.660157zm-297.105468 409.613281c-5.242188 1.402344-10.660156 2.117188-16.101563 2.117188-32.582031 0-69.761719-25.738281-104.699219-72.464844-22.898437-30.632812-43.378906-68.472656-58.023437-106.453125 5.390625-4.183593 14.007813-10.683593 22.9375-16.710937 4.578125-3.089844 5.785156-9.304688 2.699219-13.882813-3.089844-4.578125-9.304688-5.785156-13.882813-2.695312-6.929687 4.671875-13.570312 9.535156-18.839843 13.519531-1.730469-5.222656-3.34375-10.425781-4.816407-15.585938 24.917969-22.390624 71.457031-45.214843 118.394531-57.789062 24.113282-6.464844 50.359376-10.703125 74.832032-12.136719 3.199218 16.683594 7.511718 31.785157 12.886718 45.195313.023438.058594.046876.121094.074219.183594.515625 1.289062 1.042969 2.5625 1.578125 3.816406.027344.066406.058594.136718.089844.203125 2.75 6.410156 5.75 12.410156 9.007812 17.980469.042969.074218.085938.148437.128907.226562.011719.019531.023437.035156.035156.058594.1875.316406.367187.648437.558594.964844.398437.664062.8125 1.300781 1.21875 1.953124.261719.421876.523437.84375.785156 1.261719.566406.886719 1.136719 1.761719 1.714844 2.621094.28125.417969.5625.832031.84375 1.246094.59375.859375 1.1875 1.710937 1.792969 2.546875.253906.351562.507812.6875.761718 1.03125.65625.882812 1.3125 1.761718 1.980469 2.617187.074219.089844.148437.179688.222656.273438 1.3125 1.664062 2.660157 3.265625 4.035157 4.816406-6.023438 7.5625-15.253907 12.117187-25.074219 12.117187-11.410157 0-22.039063-6.136718-27.742188-16.015624-2.761719-4.78125-8.875-6.421876-13.660156-3.660157s-6.421875 8.875-3.660156 13.660157c9.265625 16.046874 26.53125 26.015624 45.0625 26.015624 15.445312 0 30.003906-6.929687 39.792969-18.523437 3.265624 2.417969 6.65625 4.558594 10.160156 6.445313.144531.082031.289062.164062.4375.242187.917968.484375 1.847656.953125 2.78125 1.402344.257812.128906.519531.253906.78125.375.898437.425781 1.804687.835937 2.71875 1.226562.109375.046875.21875.101563.332031.148438.335937 74.800781-18.328125 157.230469-72.144531 171.652343zm208.867187-257.613281c-34.9375 46.730469-72.117187 72.46875-104.695312 72.46875-5.441407 0-10.859375-.710937-16.101563-2.117187-.96875-.257813-1.921875-.546875-2.863281-.851563-.027344-.011719-.058594-.019531-.085937-.03125-43.246094-13.90625-58.933594-72.34375-64.433594-105.9375-.011719-.074219-.03125-.144531-.046875-.21875-.097657-.605469-.195313-1.203125-.289063-1.796875-6.476562-41.222656-5.699218-90.480468 1.632813-135.925781 6.753906-.925781 17.464843-2.253906 28.238281-3.007813 5.507812-.382812 9.664062-5.164062 9.277344-10.671874-.386719-5.507813-5.140625-9.679688-10.675782-9.277344-8.296874.578125-16.449218 1.46875-22.988281 2.277344.976563-4.617188 2.023438-9.179688 3.144531-13.660157 10.96875-2.335937 24-3.519531 38.84375-3.519531 28.777344 0 62.519532 4.621094 92.578126 12.675781 46.9375 12.574219 93.476562 35.402344 118.394531 57.789063-13.996094 49.027344-39.886719 101.621094-69.929688 141.804687zm0 0"/><path d="m355.976562 155.023438c-2.761718 4.78125-1.125 10.898437 3.660157 13.660156 4.785156 2.757812 10.898437 1.121094 13.660156-3.660156 5.703125-9.882813 16.335937-16.019532 27.742187-16.019532 11.410157 0 22.039063 6.136719 27.746094 16.019532 1.851563 3.207031 5.210938 5 8.667969 5 1.695313 0 3.414063-.433594 4.992187-1.339844 4.78125-2.761719 6.421876-8.878906 3.660157-13.660156-9.265625-16.050782-26.535157-26.019532-45.066407-26.019532s-35.796874 9.96875-45.0625 26.019532zm0 0"/><path d="m303.65625 144.699219c0 5.523437 4.476562 10 10 10s10-4.476563 10-10c0-18.527344-9.96875-35.796875-26.019531-45.0625-16.050781-9.269531-35.988281-9.265625-52.035157 0-4.785156 2.761719-6.421874 8.875-3.660156 13.660156 2.761719 4.78125 8.875 6.421875 13.660156 3.660156 9.878907-5.707031 22.15625-5.707031 32.035157 0 9.882812 5.703125 16.019531 16.335938 16.019531 27.742188zm0 0"/><path d="m349.046875 226.90625c-8.066406 8.066406-19.925781 11.246094-30.941406 8.292969-11.023438-2.953125-19.703125-11.636719-22.65625-22.65625-1.429688-5.332031-6.910157-8.496094-12.246094-7.070313-5.335937 1.433594-8.5 6.914063-7.070313 12.25 4.796876 17.898438 18.894532 31.996094 36.796876 36.792969 4.417968 1.1875 8.925781 1.761719 13.398437 1.761719 13.640625 0 26.996094-5.363282 36.863281-15.230469 3.902344-3.902344 3.902344-10.234375 0-14.140625-3.910156-3.90625-10.238281-3.90625-14.144531 0zm0 0"/><path d="m133.390625 301.257812h-.003906c-5.519531 0-10 4.476563-10 10 0 11.40625-6.136719 22.039063-16.015625 27.742188-9.882813 5.707031-22.15625 5.707031-32.039063 0-4.78125-2.761719-10.898437-1.121094-13.65625 3.660156-2.765625 4.785156-1.125 10.898438 3.65625 13.660156 8.027344 4.632813 17.023438 6.949219 26.019531 6.949219 8.996094 0 17.996094-2.316406 26.019532-6.949219 16.046875-9.265624 26.019531-26.53125 26.019531-45.0625-.003906-5.523437-4.480469-10-10-10zm0 0"/><path d="m188.457031 402.15625c-17.898437 4.796875-32 18.894531-36.796875 36.796875-1.429687 5.335937 1.738282 10.816406 7.074219 12.246094.867187.234375 1.734375.34375 2.59375.34375 4.414063 0 8.453125-2.945313 9.652344-7.414063 2.953125-11.023437 11.632812-19.703125 22.652343-22.652344 11.019532-2.953124 22.878907.222657 30.945313 8.289063 3.90625 3.90625 10.234375 3.90625 14.140625 0 3.90625-3.902344 3.90625-10.234375 0-14.140625-13.101562-13.105469-32.359375-18.265625-50.261719-13.46875zm0 0"/><path d="m288.335938 54.921875.476562.074219c.535156.085937 1.070312.128906 1.59375.128906 4.828125 0 9.074219-3.503906 9.863281-8.421875.875-5.453125-2.839843-10.582031-8.292969-11.457031-.246093-.039063-.496093-.078125-.746093-.113282-5.46875-.804687-10.542969 2.984376-11.34375 8.445313-.796875 5.464844 2.984375 10.542969 8.449219 11.34375zm0 0"/><path d="m75.070312 284.066406c1.230469 0 2.484376-.230468 3.703126-.714844l.402343-.15625c5.167969-1.949218 7.773438-7.722656 5.824219-12.886718-1.949219-5.167969-7.71875-7.777344-12.890625-5.824219-.246094.09375-.5.191406-.75.292969-5.128906 2.046875-7.628906 7.863281-5.582031 12.992187 1.5625 3.914063 5.320312 6.296875 9.292968 6.296875zm0 0"/></svg>